<?xml version="1.0" standalone="no"?>
<!DOCTYPE svg PUBLIC "-//W3C//DTD SVG 20010904//EN"
 "http://www.w3.org/TR/2001/REC-SVG-20010904/DTD/svg10.dtd">
<svg version="1.0" xmlns="http://www.w3.org/2000/svg"
 width="1280.000000pt" height="1280.000000pt" viewBox="0 0 1280.000000 1280.000000"
 preserveAspectRatio="xMidYMid meet">
<metadata>
Created by potrace 1.11, written by Peter Selinger 2001-2013
</metadata>
<g transform="translate(0.000000,1280.000000) scale(0.100000,-0.100000)"
fill="#000000" stroke="none">
<path d="M8971 12004 c-1 -7 -18 -12 -38 -12 -47 1 -270 -11 -340 -17 -29 -3
-79 -7 -110 -10 -75 -7 -140 -14 -181 -21 -17 -3 -49 -7 -70 -10 -20 -3 -49
-7 -64 -9 -15 -2 -35 -6 -45 -9 -10 -3 -36 -7 -58 -11 -22 -3 -82 -15 -135
-26 -52 -11 -104 -22 -115 -24 -11 -3 -92 -25 -180 -49 -144 -40 -260 -78
-402 -133 -10 -3 -20 -7 -23 -8 -7 -2 -53 -22 -113 -47 -102 -43 -345 -168
-442 -227 -70 -43 -240 -154 -245 -160 -3 -3 -23 -18 -45 -33 -50 -32 -60 -41
-204 -159 -161 -133 -297 -269 -412 -414 -52 -66 -183 -254 -184 -265 0 -3
-12 -25 -27 -50 -22 -38 -73 -142 -109 -225 -43 -99 -103 -336 -123 -490 -13
-98 -14 -392 -2 -465 27 -158 34 -194 36 -197 2 -2 3 -6 4 -10 2 -10 19 -85
21 -99 6 -28 79 -232 92 -257 8 -16 16 -36 18 -45 3 -19 117 -251 143 -294 10
-15 44 -73 77 -128 33 -55 63 -100 68 -100 4 0 7 -5 7 -10 0 -17 155 -231 172
-238 4 -2 8 -8 8 -13 0 -5 8 -17 18 -27 9 -10 30 -35 45 -55 45 -58 164 -192
237 -269 14 -14 354 -356 756 -760 749 -752 793 -798 927 -972 43 -55 85 -109
93 -119 8 -9 14 -19 14 -22 0 -3 16 -27 35 -54 19 -26 35 -52 35 -56 0 -5 6
-16 14 -24 20 -23 106 -185 154 -291 47 -104 116 -307 127 -375 2 -11 6 -36
10 -55 10 -54 14 -79 21 -155 8 -83 12 -247 6 -258 -2 -4 -5 -42 -8 -84 -2
-41 -6 -83 -8 -92 -3 -9 -8 -36 -11 -61 -3 -25 -13 -70 -21 -100 -8 -30 -16
-59 -18 -65 -5 -22 -38 -121 -46 -140 -5 -11 -20 -46 -34 -77 -14 -32 -23 -58
-21 -58 3 0 -9 -23 -25 -50 -17 -28 -30 -53 -30 -56 0 -4 -40 -71 -75 -126
-40 -62 -86 -126 -102 -143 -11 -11 -24 -28 -29 -37 -12 -22 -109 -129 -182
-203 -105 -106 -140 -137 -315 -280 -9 -8 -21 -15 -26 -15 -5 0 -11 -4 -13 -8
-5 -13 -177 -130 -293 -199 -80 -48 -274 -146 -400 -203 -51 -23 -314 -116
-385 -135 -38 -11 -268 -65 -295 -70 -16 -2 -41 -7 -55 -10 -14 -3 -38 -7 -55
-9 -16 -2 -59 -9 -95 -14 -36 -6 -72 -10 -80 -10 -8 0 -33 -3 -55 -6 -120 -15
-235 -20 -465 -20 -273 -1 -381 6 -535 30 -16 3 -43 7 -60 10 -38 6 -88 15
-142 28 -10 2 -58 16 -108 31 -49 15 -100 29 -113 32 -12 3 -25 9 -28 14 -3 5
-16 9 -30 9 -13 0 -24 4 -24 9 0 5 -10 11 -23 15 -23 5 -98 38 -127 55 -135
80 -186 113 -243 159 -192 153 -304 316 -359 525 -33 126 -30 436 6 555 3 9 7
28 10 42 16 84 95 256 173 372 50 75 189 223 258 274 22 16 49 37 60 47 65 54
309 190 450 249 52 22 177 68 192 72 7 1 16 5 19 9 4 4 17 7 29 7 12 0 25 3
29 7 3 4 13 8 21 9 8 1 45 11 82 23 67 20 250 65 308 74 17 3 53 10 80 15 28
6 70 13 95 17 25 3 90 13 145 21 117 18 186 26 345 39 36 3 90 8 120 11 108
10 456 23 638 24 68 1 133 6 145 11 12 6 48 43 80 82 l59 71 -6 96 c-9 133
-14 149 -72 193 -99 75 -80 72 -464 70 -324 -2 -556 -7 -730 -18 -170 -10
-257 -16 -300 -20 -25 -2 -80 -7 -123 -10 -43 -4 -86 -8 -96 -10 -10 -2 -54
-6 -97 -10 -43 -4 -82 -9 -86 -11 -3 -2 -26 -6 -50 -9 -69 -7 -131 -15 -158
-20 -14 -2 -38 -7 -55 -9 -68 -11 -212 -37 -235 -42 -14 -3 -38 -8 -55 -11
-40 -7 -59 -11 -65 -13 -3 -1 -8 -2 -11 -2 -4 1 -22 -3 -40 -9 -37 -11 -75
-20 -99 -23 -8 -1 -35 -8 -60 -15 -25 -7 -49 -14 -55 -16 -126 -28 -454 -136
-539 -176 -22 -11 -44 -19 -48 -19 -5 0 -75 -32 -155 -72 -261 -126 -458 -262
-629 -432 -165 -165 -278 -332 -353 -526 -23 -59 -69 -232 -77 -290 -2 -19 -7
-46 -11 -60 -3 -14 -7 -90 -8 -170 -2 -127 7 -238 29 -340 3 -14 11 -50 18
-80 6 -30 14 -59 18 -65 4 -5 10 -23 14 -40 16 -65 102 -235 163 -325 83 -118
197 -243 308 -335 33 -28 66 -55 73 -62 18 -17 204 -139 266 -174 55 -32 272
-139 281 -139 3 0 24 -8 48 -19 88 -39 307 -113 375 -126 12 -2 26 -7 32 -10
5 -3 22 -8 37 -10 16 -2 55 -11 89 -19 34 -8 72 -17 85 -20 13 -2 40 -7 59
-11 19 -3 42 -7 50 -9 8 -2 31 -6 50 -10 19 -4 51 -8 70 -10 19 -2 46 -6 60
-10 14 -3 50 -8 80 -11 30 -3 80 -8 110 -11 235 -23 353 -28 605 -29 222 0
316 4 500 20 95 8 170 16 205 20 19 3 58 7 85 10 28 3 61 8 75 10 14 3 39 7
55 9 62 9 121 18 140 23 17 3 58 11 143 28 13 2 31 6 40 9 9 3 29 7 44 10 58
10 357 89 428 113 41 13 84 27 95 29 24 4 348 126 408 153 23 10 67 29 97 42
30 12 101 46 158 76 56 29 102 50 102 47 0 -3 12 4 26 15 15 12 33 21 40 21 8
0 14 4 14 8 0 5 18 16 39 25 22 10 55 29 76 42 20 14 38 25 40 25 8 0 140 85
143 92 2 5 9 8 15 8 7 0 23 9 37 20 14 11 77 56 140 101 63 45 129 94 146 108
75 63 117 96 124 101 51 32 327 301 415 404 28 32 55 63 60 69 6 7 40 53 77
102 37 50 74 97 83 106 8 9 15 19 15 24 0 4 11 23 25 41 14 18 25 35 25 38 0
3 14 25 30 50 92 136 222 413 282 604 25 79 20 60 52 197 41 181 50 264 50
445 -1 144 -12 291 -29 375 -3 17 -13 62 -20 100 -8 39 -24 102 -35 140 -11
39 -22 77 -24 86 -33 135 -197 495 -277 611 -11 14 -19 29 -19 32 0 13 -152
227 -235 331 -121 152 -130 161 -594 633 -223 228 -497 507 -609 620 -647 659
-745 765 -929 1017 -40 55 -77 105 -82 111 -5 6 -16 24 -25 40 -9 16 -28 47
-41 69 -109 174 -205 422 -230 590 -4 22 -9 54 -12 70 -14 76 -7 335 12 440
25 131 90 298 170 435 72 122 271 349 391 447 21 17 50 40 64 52 14 11 30 24
35 29 142 117 518 320 660 356 6 2 24 9 40 15 17 7 37 14 45 16 41 9 76 18 85
24 6 3 15 6 20 7 6 1 55 12 110 24 109 24 110 24 205 35 36 4 67 8 70 10 24
15 422 23 570 11 75 -5 113 -11 220 -30 201 -36 413 -133 537 -246 81 -75 148
-178 174 -270 18 -63 19 -73 20 -185 1 -93 -2 -131 -14 -180 -3 -11 -8 -33
-12 -50 -4 -16 -13 -39 -18 -50 -6 -11 -12 -26 -13 -33 -1 -7 -22 -46 -45 -85
-76 -127 -233 -266 -402 -355 -88 -46 -224 -106 -235 -103 -1 1 -19 -6 -40
-15 -20 -8 -44 -17 -52 -19 -8 -2 -40 -11 -70 -20 -30 -9 -64 -18 -75 -20 -11
-3 -40 -9 -65 -15 -25 -5 -56 -12 -70 -14 -14 -3 -36 -7 -50 -10 -14 -3 -46
-8 -71 -11 -25 -3 -56 -8 -70 -10 -13 -3 -49 -8 -79 -10 -30 -3 -71 -7 -90
-10 -48 -5 -294 -17 -414 -19 l-99 -2 -43 -50 c-71 -80 -80 -106 -78 -219 2
-109 -2 -102 109 -179 51 -36 48 -35 235 -51 38 -4 325 -17 355 -17 44 0 360
13 400 17 100 8 172 16 196 20 13 2 44 6 69 9 25 3 54 8 65 10 11 2 43 7 70
11 28 5 52 9 55 10 3 1 23 5 45 9 81 16 282 68 360 94 44 14 85 27 90 28 11 2
110 40 140 54 89 40 157 70 160 70 6 0 235 129 248 140 7 6 37 27 67 47 62 41
54 35 138 104 209 169 358 377 430 600 22 67 23 75 42 194 12 75 11 258 -1
315 -4 19 -10 48 -13 63 -6 37 -34 137 -45 162 -33 76 -84 175 -96 185 -8 7
-15 17 -15 22 0 15 -103 139 -156 188 -88 81 -233 190 -253 190 -5 0 -11 4
-13 9 -5 14 -194 105 -298 144 -123 45 -356 109 -451 123 -19 3 -43 7 -54 9
-18 3 -60 9 -145 20 -56 8 -209 19 -272 19 -38 1 -68 3 -68 6 0 9 -95 4 -109
-5 -9 -5 -12 -4 -7 3 7 12 -32 11 -53 -3 -10 -6 -12 -4 -6 5 6 10 4 12 -8 7
-9 -3 -18 -1 -21 6 -3 8 -5 8 -5 1z"/>
</g>
</svg>
